# xmcd CD database file
#
# Track frame offsets:
#	150
#	25768
#	53761
#	78451
#	106029
#	146679
#	163341
#	189991
#	217299
#	243980
#	268419
#	299469
#	316423
#
# Disc length: 4395 seconds
#
# Revision: 0
# Processed by: cddbd v1.5.2PL0 Copyright (c) Steve Scherf et al.
# Submitted via: CDex 1.51
#
DISCID=c411290d
DTITLE=Ali and Friends - Sacred Songs
DYEAR=2007
DGENRE=New Age
TTITLE0=Eagle Song
TTITLE1=Om Mata
TTITLE2=Raghupati Ragava
TTITLE3=Lakshmi
TTITLE4=Om Mani Padme Hum
TTITLE5=Nime Kumbali
TTITLE6=Gate Gate
TTITLE7=Evening Rise
TTITLE8=From You I Receive
TTITLE9=Aad Gureh Nameh
TTITLE10=Salaam Shalom
TTITLE11=This Little light
TTITLE12=Namaste
EXTD=YEAR: 2007
EXTT0=
EXTT1=
EXTT2=
EXTT3=
EXTT4=
EXTT5=
EXTT6=
EXTT7=
EXTT8=
EXTT9=
EXTT10=
EXTT11=
EXTT12=
PLAYORDER=
